<?xml version="1.0" standalone="no"?>
<!DOCTYPE svg PUBLIC "-//W3C//DTD SVG 20010904//EN"
 "http://www.w3.org/TR/2001/REC-SVG-20010904/DTD/svg10.dtd">
<svg version="1.0" xmlns="http://www.w3.org/2000/svg"
 width="1024.000000pt" height="1024.000000pt" viewBox="0 0 1024.000000 1024.000000"
 preserveAspectRatio="xMidYMid meet">
<metadata>
Created by potrace 1.14, written by Peter Selinger 2001-2017
</metadata>
<g transform="translate(0.000000,1024.000000) scale(0.100000,-0.100000)"
fill="#000000" stroke="none">
<path d="M187 6483 c1 -1847 2 -3361 2 -3365 1 -5 5 -8 10 -8 5 0 39 -18 75
-40 36 -22 70 -40 76 -40 5 0 10 -4 10 -10 0 -5 5 -10 10 -10 6 0 43 -20 83
-44 64 -38 100 -59 197 -113 14 -8 39 -23 55 -33 31 -20 42 -26 135 -77 30
-17 78 -44 105 -60 87 -53 150 -87 154 -84 2 1 7 -1 10 -6 5 -8 35 -26 131
-80 19 -11 91 -52 159 -92 69 -39 128 -71 133 -71 4 0 8 -4 8 -10 0 -5 4 -10
10 -10 5 0 38 -17 72 -38 35 -21 84 -49 111 -62 26 -14 47 -28 47 -32 0 -5 7
-8 15 -8 9 0 25 -9 37 -20 12 -10 25 -17 30 -14 4 3 8 0 8 -5 0 -6 4 -11 9
-11 7 0 62 -30 111 -60 17 -11 166 -97 223 -129 20 -11 52 -29 70 -40 83 -48
166 -95 202 -116 22 -13 134 -77 248 -144 115 -67 213 -121 217 -121 5 0 14
-8 19 -18 6 -9 11 -14 11 -10 0 4 24 -7 53 -24 28 -17 68 -40 87 -50 19 -11
40 -24 45 -28 6 -4 35 -21 65 -37 94 -52 304 -174 318 -185 6 -6 12 -7 12 -4
0 4 6 2 13 -4 19 -17 268 -160 278 -160 5 0 9 -4 9 -9 0 -5 12 -14 28 -20 15
-6 50 -25 77 -41 28 -17 58 -33 68 -36 9 -4 17 -11 17 -16 0 -5 4 -6 10 -3 5
3 10 3 10 -2 0 -4 10 -13 23 -19 21 -10 380 -217 457 -263 19 -11 44 -25 55
-30 11 -5 37 -21 58 -35 21 -14 40 -26 44 -26 3 0 32 -16 64 -36 32 -19 61
-34 65 -34 4 1 10 -2 13 -7 3 -4 18 -15 33 -23 15 -8 68 -39 118 -68 49 -28
94 -52 99 -52 5 0 11 -3 13 -7 2 -5 17 -16 34 -25 26 -15 34 -15 55 -4 13 7
128 73 254 146 249 144 277 160 345 198 25 14 47 28 50 31 3 3 25 16 50 29 25
13 59 32 75 42 17 11 39 24 50 30 11 5 43 23 70 40 28 17 62 36 78 43 15 6 27
15 27 19 0 4 4 8 9 8 8 0 150 80 211 119 14 8 28 16 32 16 4 0 16 8 28 17 11
10 20 15 20 11 0 -3 8 1 18 9 9 9 22 17 27 19 25 9 201 114 207 123 4 6 8 7 8
3 0 -4 20 6 45 23 25 17 45 27 45 23 0 -4 4 -3 8 3 4 6 43 30 87 54 44 24 82
47 83 52 2 4 8 8 13 8 5 0 90 47 189 105 100 58 185 105 190 105 6 0 10 4 10
9 0 5 10 13 23 17 12 4 24 9 27 13 5 6 48 31 105 59 17 9 32 18 35 21 3 3 14
11 25 17 11 6 81 46 155 89 74 43 160 92 190 108 30 17 57 33 60 37 3 4 20 13
38 21 17 8 32 17 32 21 0 5 3 7 8 6 4 -1 18 5 32 14 45 29 224 131 258 147 17
8 32 19 32 23 0 4 7 8 15 8 8 0 15 5 15 11 0 5 4 8 9 5 5 -3 19 2 32 12 13 10
56 36 94 57 39 22 82 46 96 55 15 8 73 42 130 75 57 32 106 62 109 66 6 8 62
32 69 29 2 -1 7 2 10 8 3 5 65 43 136 84 72 42 146 85 165 96 51 30 78 46 144
81 32 17 54 31 50 31 -4 0 16 12 46 27 30 16 57 31 58 36 2 4 10 7 18 7 8 0
14 5 14 12 0 6 3 8 6 5 4 -4 19 2 34 13 28 20 80 34 115 31 11 -1 26 -2 33 -2
52 2 126 2 175 0 32 -1 60 1 63 4 3 3 18 1 34 -3 16 -4 31 -5 35 -2 3 4 22 5
41 3 l34 -3 0 3362 c0 2238 -3 3359 -10 3355 -5 -3 -10 -2 -10 3 0 5 -10 8
-22 8 -22 -1 -22 2 -22 112 0 76 -3 112 -11 112 -6 0 -57 -27 -113 -60 -55
-33 -103 -60 -106 -60 -3 0 -25 -13 -49 -30 -25 -16 -48 -30 -52 -30 -4 0 -20
-9 -36 -21 -16 -11 -38 -22 -49 -24 -11 -2 -25 -7 -30 -10 -6 -3 -10 -2 -10 2
0 5 -9 9 -20 9 -11 0 -20 -4 -20 -8 0 -4 -8 -4 -17 -1 -9 4 -29 7 -43 7 -14 0
-34 -3 -43 -7 -9 -3 -17 -3 -17 1 0 4 -11 7 -25 7 -14 0 -25 -4 -25 -8 0 -4
-8 -4 -17 0 -22 10 -54 10 -70 0 -6 -4 -14 -3 -18 2 -3 6 -15 7 -28 2 -12 -5
-32 -5 -44 0 -14 5 -23 5 -23 -1 0 -5 -7 -7 -15 -4 -12 5 -15 -16 -17 -136
l-3 -141 -60 -32 c-33 -17 -62 -34 -65 -38 -7 -8 -108 -66 -150 -85 -19 -9
-37 -19 -40 -23 -5 -6 -171 -104 -265 -156 -22 -12 -112 -64 -200 -115 -88
-51 -172 -99 -187 -107 -15 -8 -30 -19 -33 -24 -4 -5 -11 -7 -16 -4 -5 4 -9 2
-9 -3 0 -6 -12 -15 -27 -21 -39 -15 -96 -51 -105 -65 -4 -6 -8 -8 -8 -4 0 4
-24 -7 -52 -24 -63 -37 -107 -62 -168 -96 -25 -13 -49 -28 -55 -32 -5 -4 -26
-17 -45 -27 -19 -11 -154 -89 -300 -173 -294 -171 -308 -178 -409 -235 -39
-21 -71 -43 -71 -48 0 -4 -4 -6 -9 -2 -5 3 -16 -2 -24 -10 -9 -8 -18 -15 -20
-15 -10 0 -152 -84 -155 -92 -2 -4 -12 -8 -23 -8 -10 0 -19 -4 -19 -9 0 -5
-19 -18 -42 -30 -24 -11 -68 -36 -99 -53 -147 -87 -281 -164 -299 -173 -11 -5
-20 -19 -21 -30 0 -11 -1 -226 -2 -477 l-1 -456 -1108 0 -1108 0 0 141 c0 78
-1 292 -3 476 l-2 334 -30 16 c-16 9 -53 30 -81 47 -27 17 -60 35 -72 38 -12
4 -22 11 -22 16 0 4 -8 10 -17 13 -10 3 -40 19 -68 36 -27 16 -84 49 -125 72
-41 23 -83 49 -94 58 -10 9 -19 14 -20 12 0 -3 -12 2 -26 11 -71 45 -343 198
-351 198 -5 0 -9 4 -9 9 0 5 -8 11 -17 15 -10 3 -36 17 -58 30 -22 14 -49 29
-60 34 -11 6 -66 37 -123 71 -57 34 -108 61 -113 61 -5 0 -9 4 -9 9 0 5 -8 11
-17 14 -25 8 -97 50 -101 60 -2 4 -8 7 -12 7 -8 0 -251 138 -428 243 -26 15
-55 30 -64 33 -10 4 -18 10 -18 15 0 5 -4 9 -10 9 -5 0 -64 32 -131 70 -66 39
-125 70 -129 70 -5 0 -10 4 -12 8 -1 5 -28 22 -58 39 -128 70 -155 87 -162 97
-4 6 -8 7 -8 3 0 -5 -13 1 -29 12 -16 12 -34 21 -40 21 -6 0 -11 5 -11 10 0 6
-4 10 -9 10 -5 0 -79 41 -165 90 -86 50 -160 90 -166 90 -5 0 -10 3 -10 8 0 4
-29 23 -65 41 -36 19 -65 39 -65 43 0 4 -7 8 -15 8 -8 0 -24 8 -35 18 -11 9
-24 17 -28 17 -4 0 -18 8 -32 17 -52 33 -222 128 -230 128 -5 0 -10 3 -12 8
-4 9 -147 92 -159 92 -5 0 -9 5 -9 11 0 5 -4 8 -9 4 -5 -3 -12 -1 -15 4 -5 8
-35 26 -164 98 -24 13 -69 40 -100 59 -31 18 -59 34 -62 34 -3 0 -4 -1511 -3
-3357z m868 1897 c-3 -5 -1 -10 5 -10 6 0 57 -26 113 -59 56 -32 118 -68 137
-79 19 -11 91 -52 158 -91 68 -39 128 -71 133 -71 5 0 9 -4 9 -10 0 -5 6 -10
14 -10 8 0 16 -3 18 -7 2 -5 21 -17 43 -29 72 -38 160 -87 165 -93 3 -3 30
-19 60 -35 30 -16 61 -33 68 -39 14 -11 86 -52 122 -70 14 -6 27 -14 30 -18 3
-3 25 -16 50 -30 25 -13 47 -27 48 -32 2 -4 7 -5 12 -2 4 3 13 -2 20 -10 7 -8
16 -15 20 -15 7 0 92 -48 160 -90 8 -5 38 -22 65 -38 28 -16 68 -39 90 -52 22
-12 65 -37 95 -53 30 -17 61 -37 68 -44 8 -7 18 -11 23 -8 5 4 9 1 9 -4 0 -6
4 -11 9 -11 7 0 169 -92 231 -131 8 -5 26 -15 40 -21 14 -7 27 -15 30 -19 3
-3 32 -21 65 -39 33 -18 144 -82 247 -142 103 -59 192 -108 197 -108 6 0 11
-3 11 -8 0 -4 21 -18 48 -32 26 -13 70 -38 98 -56 28 -17 60 -35 72 -38 12 -4
22 -12 22 -17 0 -5 5 -9 11 -9 6 0 45 -20 87 -45 42 -25 84 -49 92 -54 14 -8
19 -141 20 -578 l0 -62 1108 2 1107 2 0 312 c1 172 3 313 5 315 21 13 285 166
320 184 19 11 40 24 47 31 7 6 23 15 35 19 26 8 100 54 110 69 4 5 8 6 8 2 0
-4 24 8 54 27 30 19 57 32 60 29 3 -4 6 -2 6 4 0 9 35 30 54 31 5 0 12 5 15
10 3 5 37 27 75 48 124 70 139 79 371 213 127 74 250 145 275 159 25 14 62 36
82 49 21 12 40 23 44 23 3 0 18 8 32 19 15 10 50 31 77 45 28 15 64 36 80 47
17 10 36 22 44 26 8 3 118 66 244 140 127 73 232 133 235 133 2 0 16 8 30 19
15 10 52 32 82 49 114 62 275 157 278 164 2 5 8 8 13 8 5 0 75 38 155 85 81
47 148 85 150 85 2 0 4 -1080 4 -2399 l0 -2399 -57 -33 c-32 -18 -71 -41 -88
-50 -16 -10 -41 -23 -55 -30 -14 -7 -36 -20 -50 -30 -14 -9 -45 -27 -70 -41
-25 -14 -63 -36 -85 -48 -22 -13 -51 -30 -65 -37 -14 -8 -38 -23 -55 -33 -16
-11 -37 -23 -45 -27 -48 -25 -158 -89 -179 -105 -13 -10 -27 -15 -32 -12 -5 3
-9 0 -9 -5 0 -6 -7 -11 -15 -11 -8 0 -15 -4 -15 -8 0 -4 -15 -15 -32 -23 -18
-9 -100 -55 -182 -102 -82 -48 -153 -87 -158 -87 -4 0 -8 -4 -8 -9 0 -5 -12
-14 -27 -20 -16 -6 -41 -19 -58 -28 -16 -10 -57 -34 -90 -53 -33 -19 -69 -40
-80 -47 -11 -7 -27 -15 -35 -19 -8 -4 -43 -25 -78 -46 -34 -21 -67 -38 -72
-38 -6 0 -10 -4 -10 -8 0 -4 -15 -15 -32 -23 -56 -26 -103 -54 -106 -61 -2 -5
-10 -8 -17 -8 -8 0 -20 -6 -27 -13 -7 -6 -38 -25 -68 -41 -30 -16 -62 -35 -71
-42 -8 -8 -19 -14 -23 -14 -4 0 -68 -36 -142 -80 -75 -44 -138 -80 -141 -80
-3 0 -17 -8 -31 -19 -15 -10 -48 -30 -74 -45 -93 -51 -135 -75 -298 -171 -91
-53 -170 -98 -176 -99 -7 -1 -19 -8 -27 -15 -16 -13 -241 -144 -292 -169 -16
-9 -32 -18 -35 -21 -3 -3 -18 -13 -35 -21 -16 -8 -32 -17 -35 -21 -3 -3 -25
-16 -50 -30 -68 -38 -79 -44 -162 -93 -43 -25 -82 -46 -88 -46 -5 0 -10 -4
-10 -8 0 -4 -12 -13 -27 -19 -16 -7 -46 -23 -68 -36 -32 -20 -236 -138 -375
-218 -14 -8 -28 -18 -31 -22 -3 -5 -9 -1 -13 8 -3 9 -10 13 -16 10 -5 -3 -10
-1 -10 4 0 6 -7 11 -15 11 -8 0 -15 5 -15 10 0 6 -5 10 -10 10 -8 0 -124 64
-205 113 -51 32 -96 57 -160 92 -38 21 -90 51 -114 67 -25 15 -51 28 -58 28
-7 0 -13 5 -13 10 0 6 -7 10 -15 10 -8 0 -15 4 -15 8 0 4 -12 13 -27 19 -16 7
-35 17 -43 22 -8 6 -85 51 -170 100 -85 49 -171 98 -190 109 -19 11 -57 33
-85 48 -27 14 -61 34 -75 44 -14 9 -32 20 -40 23 -8 4 -28 15 -45 26 -16 10
-48 28 -70 41 -22 12 -77 44 -123 71 -45 27 -87 49 -92 49 -6 0 -10 4 -10 8 0
4 -12 13 -27 19 -16 7 -48 24 -73 39 -79 46 -164 96 -195 114 -41 23 -139 80
-183 107 -21 12 -50 29 -67 37 -16 9 -37 20 -45 26 -8 5 -40 24 -70 41 -30 18
-68 40 -85 49 -16 10 -58 34 -92 54 -34 20 -66 36 -72 36 -6 0 -11 5 -11 11 0
5 -4 8 -9 5 -5 -4 -11 -3 -13 2 -3 7 -125 81 -158 96 -8 3 -28 15 -45 26 -16
10 -41 25 -55 33 -14 7 -43 24 -65 37 -22 12 -60 34 -85 48 -25 14 -57 33 -72
43 -14 11 -31 19 -36 19 -6 0 -17 6 -24 13 -7 7 -29 21 -48 30 -19 10 -55 31
-80 47 -25 16 -51 29 -57 29 -7 1 -13 6 -13 12 0 5 -4 8 -8 5 -5 -3 -18 4 -30
14 -12 11 -28 20 -36 20 -8 0 -16 4 -18 8 -2 5 -61 41 -133 82 -71 40 -138 80
-147 88 -10 8 -18 12 -18 8 0 -4 -12 2 -26 13 -15 12 -33 21 -40 21 -8 0 -14
5 -14 10 0 6 -7 10 -15 10 -8 0 -15 5 -15 11 0 5 -4 8 -9 5 -5 -3 -14 1 -21 9
-7 8 -16 15 -20 15 -4 0 -38 18 -74 40 -36 22 -68 40 -72 40 -3 0 -25 13 -48
30 -24 16 -46 26 -50 23 -3 -4 -6 -2 -6 4 0 6 -11 14 -24 17 l-25 6 0 233 c0
127 -1 237 -2 242 -1 6 -1 14 0 19 3 13 3 208 1 221 -2 6 -1 15 0 20 5 27 2
214 -4 224 -4 6 -3 11 3 11 6 0 6 11 1 30 -5 17 -5 30 -1 30 8 0 5 65 -3 87
-3 7 -1 13 4 13 5 0 5 13 0 30 -5 17 -6 30 -2 30 6 0 7 234 1 250 -1 3 -1 9 0
14 3 13 3 208 1 221 -2 6 -1 15 0 20 5 27 2 214 -4 224 -4 6 -3 11 3 11 6 0 6
11 1 30 -5 17 -5 30 -1 30 8 0 5 65 -3 87 -3 7 -1 13 4 13 5 0 5 13 0 30 -5
17 -6 30 -2 30 6 0 7 234 1 250 -1 3 -1 9 0 14 3 13 3 208 1 221 -2 6 -2 14
-1 19 3 13 3 208 1 221 -2 6 -1 14 0 20 2 11 2 286 -1 300 -1 6 0 14 1 20 2
11 2 286 -1 300 -1 6 0 14 1 20 2 11 2 286 -1 300 -1 6 -1 14 0 19 3 12 3 448
0 461 -1 6 -1 14 0 19 3 13 3 208 1 221 -2 6 -2 14 0 20 5 27 2 204 -4 214 -5
7 2 11 19 11 15 0 24 -4 20 -10z"/>
</g>
</svg>
